<svg xmlns="http://www.w3.org/2000/svg" xmlns:xlink="http://www.w3.org/1999/xlink" width="18" height="18" viewBox="0 0 18 18"><defs><style>.a,.c{fill:#707070;}.a{stroke:#707070;}.b{clip-path:url(#a);}</style><clipPath id="a"><rect class="a" width="18" height="18" transform="translate(6914 -18083)"/></clipPath></defs><g class="b" transform="translate(-6914 18083)"><g transform="translate(6914.095 -18083)"><path class="c" d="M19.079,18.333a1.5,1.5,0,0,1-1.524,1.524H5.365a1.5,1.5,0,0,1-1.524-1.524V6.238A1.5,1.5,0,0,1,5.365,4.714h7.143V3.667H5.365A2.542,2.542,0,0,0,2.889,6.238v12.19A2.561,2.561,0,0,0,5.46,21h12.1a2.561,2.561,0,0,0,2.571-2.571V11.381H19.079v6.952Z" transform="translate(-2.889 -3)"/><path class="c" d="M21.365,3.46a2.071,2.071,0,0,0-2.857,0l-6.762,6.762a.3.3,0,0,0-.1.19l-.762,2.857a.714.714,0,0,0,.1.476.5.5,0,0,0,.381.19h.1l2.857-.762a.333.333,0,0,0,.19-.1L21.27,6.317a1.938,1.938,0,0,0,.571-1.429A1.87,1.87,0,0,0,21.365,3.46Zm-7.429,8.857-1.9.476.476-1.9L18.127,5.27,19.556,6.7ZM20.7,5.556l-.381.381L18.889,4.508l.381-.381a1.036,1.036,0,0,1,1.429,0,1.081,1.081,0,0,1,.286.762A.865.865,0,0,1,20.7,5.556Z" transform="translate(-4.032 -2.889)"/></g></g></svg>