<svg xmlns="http://www.w3.org/2000/svg" xmlns:xlink="http://www.w3.org/1999/xlink" width="18" height="18" viewBox="0 0 18 18"><defs><style>.a,.c{fill:#ff4081;}.a{stroke:#707070;}.b{clip-path:url(#a);}</style><clipPath id="a"><rect class="a" width="18" height="18" transform="translate(10098 -18052)"/></clipPath></defs><g class="b" transform="translate(-10098 18052)"><g transform="translate(10099.244 -18052)"><path class="c" d="M22.769,29.7h7.019a.251.251,0,0,0,0-.5H22.769a.251.251,0,0,0,0,.5Z" transform="translate(-19.811 -21.223)"/><path class="c" d="M22.769,35.588h7.019a.251.251,0,0,0,0-.5H22.769a.251.251,0,0,0,0,.5Z" transform="translate(-19.811 -24.858)"/><path class="c" d="M30.039,41.228a.237.237,0,0,0-.251-.251H22.769a.251.251,0,0,0,0,.5h7.019A.237.237,0,0,0,30.039,41.228Z" transform="translate(-19.811 -28.493)"/><path class="c" d="M30.791,22.318l-.752-.251h-.15a.049.049,0,0,0-.05.05h0c-.05,0-.05.05-.1.1l-.351.7a.332.332,0,0,0,.1.351h.1a.276.276,0,0,0,.251-.15l.1-.251a2.156,2.156,0,0,1,.1,1.253,2.257,2.257,0,1,1-3.409-2.407,2.1,2.1,0,0,1,1.554-.3h.15c.05-.05.15-.1.15-.2V12.39a.175.175,0,0,0-.05-.1h0L24.574,8.429c-.05-.05-.1-.05-.2-.05H16.7a1.241,1.241,0,0,0-1.253,1.253v14.54A1.241,1.241,0,0,0,16.7,25.426h9.075a2.855,2.855,0,0,0,2.106.953,3.022,3.022,0,0,0,1.454-.4,2.779,2.779,0,0,0,1.2-1.7,2.552,2.552,0,0,0-.1-1.5l.2.05a.243.243,0,0,0,.3-.15A.259.259,0,0,0,30.791,22.318ZM24.624,9.231l3.008,3.008H25.376a.771.771,0,0,1-.752-.752V9.231ZM15.95,24.173V9.632A.771.771,0,0,1,16.7,8.88h7.421v2.607a1.241,1.241,0,0,0,1.253,1.253h2.607v8.123a2.651,2.651,0,0,0-1.6.4,2.79,2.79,0,0,0-.953,3.66H16.7A.738.738,0,0,1,15.95,24.173Z" transform="translate(-15.448 -8.379)"/><path class="c" d="M47.37,44.109a.237.237,0,0,0-.251-.251h0a.237.237,0,0,0-.251.251v1.805a.049.049,0,0,0,.05.05l.05.05h.05l1,.552a.175.175,0,0,1,.1.05c.1,0,.15-.05.2-.15a.332.332,0,0,0-.1-.351l-.852-.5Z" transform="translate(-34.836 -30.27)"/></g></g></svg>